# Blender v2.91.2 OBJ File: 'BreakoutBrick.blend'
# www.blender.org
mtllib BreakoutBrick.mtl
o Cube
v -1.000000 1.000000 -2.500000
v 1.000000 1.000000 -2.500000
v -1.000000 1.000000 2.500000
v 1.000000 1.000000 2.500000
v -1.000000 -1.000000 -2.500000
v 1.000000 -1.000000 -2.500000
v -1.000000 -1.000000 2.500000
v 1.000000 -1.000000 2.500000
vt 0.799946 0.799946
vt 0.599982 0.799946
vt 0.599982 0.200054
vt 0.799946 0.200054
vt 0.200054 0.200054
vt 0.200054 0.000089
vt 0.400018 0.000089
vt 0.400018 0.200054
vt 0.400018 0.799946
vt 0.200054 0.799946
vt 0.000089 0.799946
vt 0.000089 0.200054
vt 0.400018 0.999910
vt 0.200054 0.999910
vn -1.0000 0.0000 0.0000
vn -0.0000 0.0000 1.0000
vn -0.0000 -1.0000 0.0000
vn 1.0000 -0.0000 0.0000
vn 0.0000 1.0000 0.0000
vn 0.0000 0.0000 -1.0000
usemtl BrickTexture
s off
f 1/1/1 5/2/1 7/3/1 3/4/1
f 4/5/2 3/6/2 7/7/2 8/8/2
f 8/8/3 7/3/3 5/2/3 6/9/3
f 6/9/4 2/10/4 4/5/4 8/8/4
f 2/10/5 1/11/5 3/12/5 4/5/5
f 6/9/6 5/13/6 1/14/6 2/10/6
